# xmcd
#
# Track frame offsets:
#	150
#	11027
#	23730
#	34528
#	51049
#	62562
#	80018
#	91426
#	107205
#	122587
#	134404
#	155879
#	171372
#	185687
#	201141
#	204742
#	220326
#	236664
#
# Disc length: 3401 seconds
#
# Revision: 0
# Processed by: cddbd v1.4PL0 Copyright (c) Steve Scherf et al.
# Submitted via: EasyCDDAExtractor 5.0.0.0
#
DISCID=060d4712
DTITLE=Rory Block - Best Blues and Originals
DYEAR=1900
DGENRE=Blues
TTITLE0=Walkin' Blues
TTITLE1=Travelin' Blues
TTITLE2=Got To Have You Be My Man
TTITLE3=The Water Is Wide
TTITLE4=Crossroad Blues
TTITLE5=Ain't No Way To Do
TTITLE6=Catastrophe Rag
TTITLE7=Lovin' Fool
TTITLE8=Sit Down on the Banks
TTITLE9=God's Gift To Women
TTITLE10=The Golden Vanity
TTITLE11=El Vuela Del Alma
TTITLE12=Future Blues
TTITLE13=M and Q Blues
TTITLE14=Foreign Lander
TTITLE15=Moon's Goin' Down
TTITLE16=Send the Man Back Home
TTITLE17=Lovin' Whiskey
EXTD=
EXTT0=
EXTT1=
EXTT2=
EXTT3=
EXTT4=
EXTT5=
EXTT6=
EXTT7=
EXTT8=
EXTT9=
EXTT10=
EXTT11=
EXTT12=
EXTT13=
EXTT14=
EXTT15=
EXTT16=
EXTT17=
PLAYORDER=
